# xmcd
# 
# Track frame offsets:
#     150
#     20760
#     37907
#     53212
#     71430
#     85837
#     105525
#     123897
#     142975
#     156387
#     177025
#     201412
#     224140
# 
# Disc length: 3139
# 
# Revision: 1
# Processed by: cddbd v1.5.2PL0 Copyright (c) Steve Scherf et al.
# Submitted via: BonkEnc v1.0.8
# 
DISCID=b80c410d
DTITLE=Notodden Blues Band - 3670  Notodden
DYEAR=1993
DGENRE=Blues
TTITLE0=Hvor du måtte være
TTITLE1=Åpne opp
TTITLE2=Like blid
TTITLE3=Få'kke sove
TTITLE4=Minareten
TTITLE5=Dama mi
TTITLE6=20. århundrets peis
TTITLE7=Full gass
TTITLE8=Nabo'n har daua
TTITLE9=Sølibat
TTITLE10=Livet mitt
TTITLE11=Trur jeg
TTITLE12=Telma
EXTD=
EXTT0=
EXTT1=
EXTT2=
EXTT3=
EXTT4=
EXTT5=
EXTT6=
EXTT7=
EXTT8=
EXTT9=
EXTT10=
EXTT11=
EXTT12=
PLAYORDER=
